{"glyphs":{":":{"x_min":0,"x_max":333,"ha":333,"o":"m 212 442 q 233 442 248 428 q 262 414 262 393 q 262 373 248 358 q 233 343 212 343 q 192 343 177 358 q 163 373 163 393 q 163 414 177 428 q 192 442 212 442 z m 109 89 q 129 89 144 74 q 158 60 158 40 q 158 20 143 5 q 129 -9 109 -9 q 88 -9 74 5 q 60 20 60 40 q 60 60 74 74 q 88 89 109 89 z"},"$":{"x_min":0,"x_max":500,"ha":500,"o":"m 381 627 l 313 393 q 389 333 420 280 q 441 243 441 197 q 441 142 410 91 q 378 40 327 15 q 275 -10 195 -9 l 179 -66 l 147 -66 l 164 -9 q 125 -1 99 11 q 73 22 42 46 l 82 185 l 102 185 q 97 153 97 132 q 97 95 117 65 q 138 35 175 22 l 260 321 q 195 373 169 414 q 143 456 143 503 q 143 577 198 621 q 252 665 315 665 q 332 665 359 662 l 370 700 l 401 700 l 389 658 q 422 648 442 636 q 462 625 489 602 l 457 484 l 437 484 q 438 506 438 520 q 438 561 419 593 q 408 611 381 627 z m 352 636 q 330 639 317 639 q 275 639 245 608 q 215 576 215 529 q 215 501 230 475 q 245 449 288 412 z m 203 18 q 217 17 225 17 q 258 17 295 35 q 333 54 353 88 q 373 122 373 160 q 373 192 354 224 q 335 256 286 299 z"},"?":{"x_min":0,"x_max":500,"ha":500,"o":"m 176 163 l 157 163 q 164 225 187 270 q 210 314 277 385 q 344 457 365 500 q 380 531 380 563 q 380 602 353 629 q 326 655 283 655 q 241 655 215 638 q 201 628 201 614 q 201 604 209 587 q 217 570 217 559 q 217 542 205 531 q 193 520 176 520 q 159 520 147 532 q 135 544 135 564 q 135 607 177 642 q 219 677 291 677 q 366 677 412 635 q 458 593 458 539 q 458 495 437 463 q 409 421 330 366 q 250 312 221 271 q 191 229 176 163 z m 146 84 q 167 84 182 70 q 196 55 196 34 q 196 14 182 -1 q 167 -15 146 -15 q 126 -15 111 -1 q 97 14 97 34 q 97 55 111 70 q 125 84 146 84 z"},"<":{"x_min":0,"x_max":675,"ha":675,"o":"m 73 345 l 599 572 l 599 530 l 146 333 l 599 135 l 599 91 l 73 321 z"},"'":{"x_min":0,"x_max":214,"ha":214,"o":"m 131 392 l 146 537 q 153 598 159 620 q 168 650 185 664 q 202 677 223 677 q 241 677 251 667 q 261 658 261 643 q 261 631 256 618 q 250 599 220 536 l 153 392 z"},"=":{"x_min":0,"x_max":675,"ha":675,"o":"m 98 431 l 625 431 l 625 391 l 98 391 z m 98 272 l 625 272 l 625 232 l 98 232 z"},"a":{"x_min":0,"x_max":500,"ha":500,"o":"m 469 442 l 374 111 l 363 66 q 362 60 362 56 q 362 48 367 42 q 371 38 376 38 q 383 38 393 45 q 412 60 444 104 l 460 92 q 427 42 391 15 q 355 -12 325 -12 q 304 -12 294 -1 q 283 9 283 29 q 283 53 294 92 l 304 129 q 240 45 187 12 q 148 -12 111 -12 q 75 -12 49 18 q 23 47 23 99 q 23 177 70 263 q 117 349 188 401 q 245 442 294 442 q 324 442 344 426 q 364 411 374 375 l 392 430 z m 295 417 q 264 417 229 387 q 179 346 140 264 q 102 183 102 117 q 102 83 118 64 q 135 45 156 45 q 209 45 272 124 q 355 228 355 338 q 355 379 339 398 q 323 417 295 417 z"},"L":{"x_min":0,"x_max":556,"ha":556,"o":"m 458 0 l -32 0 l -25 18 q 14 19 27 24 q 47 33 57 47 q 72 70 89 128 l 206 531 q 221 581 221 604 q 221 623 207 633 q 194 644 157 644 q 148 644 144 644 l 149 662 l 419 662 l 416 644 q 370 644 351 635 q 332 626 319 606 q 311 593 291 524 l 176 128 q 163 83 163 66 q 163 54 176 43 q 184 36 213 36 l 277 36 q 347 36 388 54 q 418 67 444 93 q 458 108 492 166 l 505 188 l 523 188 z"},"3":{"x_min":0,"x_max":500,"ha":500,"o":"m 153 362 l 153 376 q 271 394 329 446 q 371 483 371 535 q 371 573 347 598 q 322 624 288 624 q 233 624 190 556 l 172 561 q 198 618 238 647 q 277 676 325 676 q 382 676 418 641 q 454 607 454 554 q 454 509 420 468 q 387 426 305 394 q 356 373 382 333 q 408 294 408 239 q 408 178 373 116 q 337 55 276 22 q 215 -12 147 -12 q 86 -12 54 10 q 33 24 33 44 q 33 61 46 73 q 58 85 76 85 q 89 85 102 82 q 109 79 140 62 q 170 45 188 39 q 205 34 223 34 q 267 34 295 85 q 324 136 324 193 q 324 240 304 277 q 285 313 244 336 q 202 359 153 362 z"},";":{"x_min":0,"x_max":333,"ha":333,"o":"m 214 441 q 234 441 249 427 q 264 413 264 392 q 264 371 249 356 q 234 342 214 342 q 193 342 179 356 q 164 371 164 392 q 164 413 178 427 q 193 441 214 441 z m 18 -108 q 69 -79 81 -63 q 93 -46 93 -31 q 93 -21 90 -14 q 88 -9 77 3 q 66 16 64 21 q 61 29 61 39 q 61 60 75 75 q 90 90 109 90 q 129 90 145 74 q 160 58 160 32 q 160 -1 141 -32 q 123 -64 91 -89 q 79 -98 26 -125 z"},"J":{"x_min":0,"x_max":444,"ha":444,"o":"m 286 662 l 547 662 l 542 644 q 491 644 471 626 q 450 608 428 530 l 344 239 q 320 156 295 113 q 263 54 207 20 q 152 -15 83 -15 q 26 -15 -4 11 q -34 37 -34 74 q -34 104 -16 123 q 2 143 28 143 q 50 143 64 129 q 78 116 78 97 q 78 82 65 67 q 49 48 49 42 q 49 31 58 23 q 67 15 83 15 q 105 15 130 25 q 154 36 175 58 q 196 80 212 111 q 228 142 245 195 l 269 279 l 341 530 q 357 585 357 599 q 357 618 343 629 q 328 641 281 644 z"},"V":{"x_min":0,"x_max":611,"ha":611,"o":"m 152 -15 l 207 536 q 210 578 210 593 q 210 615 194 629 q 178 644 143 644 l 125 644 l 130 662 l 391 662 l 386 644 q 343 644 327 635 q 312 627 302 607 q 297 596 292 546 l 253 151 l 511 503 q 553 561 564 583 q 571 598 571 609 q 571 623 560 632 q 549 642 518 644 l 524 662 l 723 662 l 718 644 q 694 642 680 635 q 653 622 627 596 q 600 570 542 492 l 169 -15 z"},"\"":{"x_min":0,"x_max":420,"ha":420,"o":"m 323 392 l 337 535 q 343 590 345 600 q 352 631 361 648 q 369 660 384 669 q 399 677 416 677 q 433 677 443 668 q 452 659 452 644 q 452 631 445 611 q 427 560 415 535 l 346 392 z m 144 392 l 159 537 q 165 599 171 620 q 181 650 198 664 q 215 677 236 677 q 253 677 263 667 q 273 658 273 643 q 273 631 268 617 q 261 597 232 536 l 165 392 z"},"7":{"x_min":0,"x_max":500,"ha":500,"o":"m 194 662 l 523 662 l 523 646 l 152 -12 l 113 6 l 438 584 l 281 584 q 216 584 192 573 q 168 562 137 517 l 117 517 z"},"S":{"x_min":0,"x_max":500,"ha":500,"o":"m 7 -15 l 62 230 l 78 230 q 75 195 75 171 q 75 104 117 62 q 160 21 229 21 q 293 21 326 60 q 359 99 359 150 q 359 184 344 211 q 321 251 222 354 q 173 402 160 426 q 137 466 137 509 q 137 579 189 628 q 241 677 322 677 q 349 677 374 672 q 389 669 429 652 q 457 641 460 640 q 467 639 475 639 q 489 639 500 646 q 510 653 523 677 l 542 677 l 491 458 l 475 458 q 477 487 477 505 q 477 564 438 602 q 398 639 334 639 q 284 639 252 609 q 220 580 220 541 q 220 506 240 475 q 261 444 334 374 q 407 304 428 265 q 450 226 450 181 q 450 131 423 84 q 396 37 347 11 q 297 -15 238 -15 q 208 -15 183 -10 q 158 -4 102 17 q 83 24 70 24 q 42 24 25 -15 z"},"}":{"x_min":0,"x_max":400,"ha":400,"o":"m 181 677 l 186 694 q 250 686 286 646 q 322 606 322 552 q 322 501 284 430 q 246 359 246 332 q 246 300 268 278 q 289 255 331 250 l 325 229 q 275 223 239 197 q 203 170 188 137 q 178 114 174 46 q 170 -22 143 -73 q 116 -124 56 -165 q -4 -207 -75 -216 l -70 -199 q -15 -186 20 -159 q 54 -133 69 -97 q 80 -71 84 -8 q 87 56 103 90 q 122 134 168 175 q 215 215 288 238 q 238 259 212 294 q 187 330 187 372 q 187 414 225 486 q 263 557 263 589 q 263 622 245 644 q 226 666 181 677 z"},"Z":{"x_min":0,"x_max":556,"ha":556,"o":"m 151 662 l 611 662 l 611 644 l 119 32 l 196 32 q 320 32 371 44 q 422 56 456 86 q 490 117 513 172 l 531 172 l 474 0 l -2 0 l -2 14 l 490 626 l 353 626 q 263 626 226 618 q 189 610 163 586 q 137 561 119 511 l 102 511 z"},"x":{"x_min":0,"x_max":444,"ha":444,"o":"m 173 442 q 197 417 209 391 q 218 374 238 299 l 281 363 q 298 387 323 408 q 347 429 366 437 q 377 442 392 442 q 413 442 425 431 q 438 419 438 403 q 438 385 430 378 q 417 366 399 366 q 389 366 377 370 q 354 378 346 378 q 334 378 318 364 q 288 339 246 266 l 286 98 q 295 60 302 52 q 308 44 314 44 q 325 44 338 56 q 365 78 384 114 l 401 105 q 371 48 323 10 q 296 -12 278 -12 q 250 -12 234 19 q 224 38 192 183 q 116 51 70 13 q 40 -12 12 -12 q -7 -12 -23 2 q -35 13 -35 31 q -35 47 -24 58 q -14 69 2 69 q 18 69 35 53 q 48 42 55 42 q 61 42 70 50 q 93 68 132 130 q 172 191 184 219 q 154 337 151 344 q 140 376 122 389 q 104 402 69 402 q 58 402 43 401 l 43 419 z"},")":{"x_min":0,"x_max":333,"ha":333,"o":"m 146 685 l 162 694 q 220 584 245 499 q 265 433 265 365 q 265 208 192 83 q 103 -69 -97 -214 l -109 -199 q -19 -131 39 -49 q 110 55 155 201 q 201 348 201 468 q 201 560 146 685 z"},"&":{"x_min":0,"x_max":778,"ha":778,"o":"m 526 347 l 724 347 l 724 329 q 681 323 654 305 q 627 288 590 235 q 542 165 510 123 q 568 25 636 25 q 677 25 711 61 l 733 61 q 704 21 671 3 q 638 -15 593 -15 q 546 -15 512 2 q 478 20 444 61 q 390 20 341 2 q 292 -15 232 -15 q 144 -15 96 31 q 48 77 48 150 q 48 238 122 304 q 170 347 318 397 q 316 416 315 432 q 313 449 313 462 q 313 562 366 620 q 418 677 492 677 q 542 677 571 650 q 600 622 600 581 q 600 528 558 480 q 516 433 407 397 q 442 252 494 154 q 569 245 569 300 q 569 312 560 319 q 551 327 526 329 z m 401 429 q 475 460 501 489 q 537 529 537 577 q 537 608 520 626 q 502 644 475 644 q 440 644 416 613 q 391 583 391 512 q 391 495 394 474 q 396 454 401 429 z m 323 367 q 229 332 188 281 q 146 229 146 175 q 146 113 185 73 q 225 33 288 33 q 322 33 350 43 q 377 54 426 88 q 395 137 365 215 q 336 294 323 367 z"},"_":{"x_min":0,"x_max":500,"ha":500,"o":"m 509 -216 l -8 -216 l -8 -175 l 509 -175 z"},"v":{"x_min":0,"x_max":444,"ha":444,"o":"m 21 412 l 163 442 q 178 406 187 368 q 200 313 208 237 q 212 199 219 76 q 280 144 292 160 q 356 247 366 262 q 382 288 389 308 q 394 322 394 335 q 394 348 371 365 q 349 381 349 402 q 349 417 361 430 q 374 442 391 442 q 411 442 427 425 q 442 408 442 383 q 442 358 435 335 q 422 298 387 245 q 353 191 275 102 q 266 90 167 -12 l 149 -12 q 137 297 100 374 q 88 399 60 399 q 47 399 25 395 z"},"O":{"x_min":0,"x_max":722,"ha":722,"o":"m 493 677 q 559 677 609 649 q 660 620 689 564 q 718 508 718 448 q 718 342 656 225 q 594 108 495 46 q 395 -15 289 -15 q 212 -15 160 19 q 109 53 84 108 q 60 164 60 216 q 60 309 104 400 q 149 490 211 551 q 273 612 343 645 q 414 677 493 677 z m 476 646 q 427 646 381 622 q 334 598 288 543 q 242 488 206 399 q 161 290 161 192 q 161 123 196 70 q 232 16 306 16 q 350 16 393 38 q 436 60 482 113 q 540 180 580 284 q 619 388 619 478 q 619 544 583 595 q 548 646 476 646 z"},"(":{"x_min":0,"x_max":333,"ha":333,"o":"m 188 -206 l 171 -214 q 113 -103 88 -18 q 68 48 68 116 q 68 273 141 397 q 230 550 431 694 l 442 677 q 352 610 295 527 q 224 424 178 277 q 133 131 133 11 q 133 -81 188 -206 z"},"C":{"x_min":0,"x_max":667,"ha":667,"o":"m 704 677 l 654 463 l 637 463 l 635 517 q 632 546 624 569 q 615 592 597 609 q 580 625 553 635 q 526 645 493 645 q 406 645 340 597 q 257 536 209 424 q 170 333 170 238 q 170 142 227 85 q 283 27 373 27 q 440 27 493 58 q 546 88 592 151 l 615 151 q 561 65 496 25 q 430 -15 339 -15 q 258 -15 195 19 q 133 53 100 114 q 67 176 67 247 q 67 355 125 458 q 184 560 285 619 q 386 677 489 677 q 538 677 598 654 q 624 645 636 645 q 647 645 656 649 q 665 654 686 677 z"},"W":{"x_min":0,"x_max":833,"ha":833,"o":"m 135 -15 l 192 537 q 196 568 196 585 q 196 614 180 628 q 164 643 122 644 l 127 662 l 375 662 l 370 644 q 320 645 302 626 q 283 608 276 537 l 240 179 l 491 567 q 492 577 492 584 q 492 611 476 626 q 459 641 406 644 l 410 662 l 678 662 l 673 644 q 626 644 610 636 q 599 631 591 619 q 583 607 578 578 q 576 570 566 465 q 555 360 534 179 l 744 498 q 778 550 787 571 q 795 592 795 606 q 795 620 784 631 q 772 641 744 644 l 748 662 l 944 662 l 939 644 q 913 642 893 631 q 873 621 846 590 q 830 573 781 498 l 449 -15 l 431 -15 l 484 498 l 152 -15 z"},"A":{"x_min":0,"x_max":611,"ha":611,"o":"m 515 677 l 465 126 q 461 88 461 76 q 461 56 468 46 q 478 32 493 25 q 509 18 547 18 l 542 0 l 281 0 l 286 18 l 297 18 q 329 18 349 32 q 363 41 371 62 q 376 78 381 134 l 389 218 l 200 218 l 132 126 q 109 96 104 82 q 98 69 98 57 q 98 42 110 30 q 123 19 152 18 l 147 0 l -49 0 l -43 18 q -7 20 20 42 q 48 65 103 139 l 498 677 z m 418 515 l 227 253 l 393 253 z"},"f":{"x_min":0,"x_max":278,"ha":278,"o":"m 296 430 l 288 398 l 216 398 l 163 185 q 127 43 91 -34 q 40 -143 -20 -184 q -64 -216 -109 -216 q -139 -216 -159 -198 q -174 -186 -174 -167 q -174 -151 -162 -139 q -149 -128 -131 -128 q -118 -128 -109 -136 q -100 -145 -100 -155 q -100 -166 -110 -175 q -118 -182 -118 -186 q -118 -190 -115 -192 q -110 -196 -101 -196 q -80 -196 -57 -183 q -34 -169 -16 -143 q 2 -117 19 -68 q 25 -47 55 67 l 140 398 l 55 398 l 62 430 q 103 430 119 436 q 135 441 148 457 q 162 473 183 517 q 212 575 238 607 q 274 651 314 673 q 354 694 389 694 q 426 694 449 676 q 471 657 471 635 q 471 618 460 606 q 449 594 431 594 q 416 594 406 603 q 397 612 397 624 q 397 632 403 643 q 410 655 410 659 q 410 666 405 669 q 399 674 387 674 q 356 674 332 654 q 299 628 273 573 q 260 544 225 430 z"},"Q":{"x_min":0,"x_max":722,"ha":722,"o":"m 292 -15 l 167 -117 q 196 -112 222 -112 q 246 -112 267 -115 q 288 -118 356 -133 q 424 -148 475 -148 q 529 -148 567 -130 q 604 -111 640 -67 l 656 -75 q 606 -147 538 -179 q 469 -211 393 -211 q 350 -211 276 -194 q 164 -169 119 -169 q 102 -169 91 -172 q 80 -174 59 -184 l 47 -170 l 248 -12 q 155 0 107 69 q 59 138 59 216 q 59 323 124 438 q 188 552 289 615 q 390 677 487 677 q 560 677 611 648 q 662 619 689 563 q 717 507 717 448 q 717 336 653 221 q 589 105 494 46 q 399 -13 292 -15 z m 476 646 q 427 646 380 622 q 333 598 288 543 q 242 488 205 399 q 161 290 161 192 q 161 123 196 70 q 232 16 306 16 q 350 16 393 38 q 436 60 481 113 q 540 180 580 284 q 619 388 619 478 q 619 543 583 595 q 548 646 476 646 z"},"w":{"x_min":0,"x_max":667,"ha":667,"o":"m 419 442 l 453 76 q 538 175 588 263 q 618 314 618 337 q 618 348 613 356 q 611 360 598 369 q 584 377 579 386 q 574 396 574 406 q 574 421 585 431 q 596 442 614 442 q 634 442 648 427 q 662 412 662 387 q 662 362 654 340 q 640 298 597 231 q 545 152 490 84 q 436 16 409 -12 l 391 -12 l 359 326 l 157 -12 l 136 -12 q 132 197 115 317 q 107 368 90 383 q 78 395 53 395 q 39 395 17 392 l 17 409 l 157 442 q 187 360 195 191 q 198 127 200 111 l 401 442 z"},"-":{"x_min":0,"x_max":333,"ha":333,"o":"m 299 250 l 279 185 l 26 185 l 46 250 z"},"E":{"x_min":0,"x_max":611,"ha":611,"o":"m 324 626 l 248 365 l 310 365 q 376 365 406 385 q 436 405 458 460 l 476 460 l 408 220 l 388 220 q 397 250 397 271 q 397 292 388 305 q 380 318 365 324 q 350 330 302 330 l 239 330 l 175 111 q 166 79 166 62 q 166 50 178 40 q 187 33 220 33 l 278 33 q 374 33 431 67 q 488 101 534 184 l 552 184 l 489 0 l -22 0 l -16 18 q 22 19 35 25 q 55 34 63 47 q 77 67 95 131 l 211 531 q 225 579 225 604 q 225 623 212 634 q 199 644 161 644 l 151 644 l 157 662 l 632 662 l 591 502 l 573 502 q 577 525 577 540 q 577 566 564 583 q 547 606 516 618 q 492 626 408 626 z"},"s":{"x_min":0,"x_max":389,"ha":389,"o":"m 363 442 l 333 292 l 315 292 q 312 357 287 387 q 262 417 224 417 q 194 417 176 400 q 158 384 158 360 q 158 344 165 330 q 172 315 196 289 q 260 219 278 184 q 297 149 297 118 q 297 67 255 28 q 212 -12 148 -12 q 113 -12 67 5 q 51 11 42 11 q 20 11 9 -12 l -9 -12 l 21 146 l 39 146 q 42 72 69 42 q 97 11 146 11 q 183 11 204 31 q 226 52 226 83 q 226 102 218 119 q 205 148 161 200 q 117 251 105 277 q 92 303 92 329 q 92 376 127 409 q 161 442 215 442 q 231 442 244 439 q 250 438 276 428 q 301 419 309 419 q 330 419 344 442 z"},">":{"x_min":0,"x_max":675,"ha":675,"o":"m 599 319 l 73 91 l 73 133 l 526 330 l 73 528 l 73 572 l 599 343 z"},"l":{"x_min":0,"x_max":278,"ha":278,"o":"m 297 694 l 130 113 q 118 70 118 60 q 118 53 123 48 q 127 43 134 43 q 144 43 154 51 q 180 71 208 113 l 222 98 q 176 33 137 7 q 108 -12 82 -12 q 63 -12 51 1 q 39 14 39 30 q 39 48 54 103 l 187 561 q 203 617 203 625 q 203 637 193 644 q 184 652 165 652 q 153 652 130 648 l 130 667 z"},"8":{"x_min":0,"x_max":500,"ha":500,"o":"m 337 371 q 384 320 406 275 q 428 231 428 187 q 428 107 367 48 q 307 -12 218 -12 q 138 -12 88 37 q 38 85 38 149 q 38 205 79 258 q 120 311 233 360 q 189 414 174 448 q 159 483 159 517 q 159 582 207 629 q 256 676 330 676 q 400 676 444 635 q 489 595 489 541 q 489 487 453 443 q 417 399 337 371 z m 318 391 q 371 409 400 450 q 429 491 429 544 q 429 594 401 623 q 373 651 328 651 q 284 651 257 624 q 230 597 230 553 q 230 521 245 493 q 265 452 318 391 z m 251 340 q 178 310 141 253 q 104 195 104 129 q 104 76 136 44 q 169 11 223 11 q 279 11 317 50 q 355 89 355 144 q 355 185 333 230 q 311 275 251 340 z"},"\\":{"x_min":0,"x_max":278,"ha":278,"o":"m 141 694 l 231 -15 l 195 -15 l 106 694 z"},"e":{"x_min":0,"x_max":444,"ha":444,"o":"m 119 184 q 116 160 116 144 q 116 100 146 70 q 177 39 221 39 q 256 39 289 53 q 321 68 385 117 l 396 103 q 280 -12 175 -12 q 104 -12 67 33 q 31 78 31 132 q 31 205 76 281 q 121 357 189 400 q 257 442 329 442 q 380 442 405 421 q 430 400 430 371 q 430 331 398 293 q 355 245 273 215 q 218 195 119 184 z m 123 208 q 195 216 240 236 q 300 263 330 301 q 360 338 360 372 q 360 392 347 405 q 334 417 311 417 q 261 417 205 365 q 149 312 123 208 z"},"b":{"x_min":0,"x_max":500,"ha":500,"o":"m 289 694 l 192 357 q 239 406 274 424 q 309 442 347 442 q 401 442 435 406 q 469 371 469 310 q 469 231 424 153 q 379 75 312 32 q 244 -12 178 -12 q 104 -12 26 43 l 175 555 q 192 614 192 624 q 192 637 184 643 q 173 652 151 652 q 141 652 120 648 l 120 667 z m 100 38 q 148 11 186 11 q 229 11 275 43 q 321 74 355 149 q 389 224 389 300 q 389 345 366 370 q 344 396 314 396 q 269 396 225 359 q 182 323 163 258 z"},"%":{"x_min":0,"x_max":833,"ha":833,"o":"m 817 677 l 117 -26 l 70 -26 l 771 677 z m 264 677 q 310 677 344 641 q 377 604 377 544 q 377 454 318 388 q 258 323 191 323 q 142 323 108 360 q 74 397 74 456 q 74 544 135 611 q 196 677 264 677 z m 268 656 q 244 656 224 637 q 188 605 163 533 q 137 460 137 399 q 137 373 151 357 q 166 341 187 341 q 208 341 223 356 q 258 388 287 460 q 316 532 316 597 q 316 624 302 640 q 287 656 268 656 z m 699 327 q 747 327 781 290 q 815 253 815 192 q 815 136 787 84 q 759 32 714 2 q 669 -27 628 -27 q 580 -27 546 9 q 512 45 512 102 q 512 192 573 260 q 633 327 699 327 z m 705 307 q 680 307 662 289 q 628 258 601 185 q 573 111 573 52 q 573 25 588 9 q 602 -7 622 -7 q 645 -7 662 9 q 696 42 724 114 q 752 187 752 244 q 752 274 738 290 q 724 307 705 307 z"},"m":{"x_min":0,"x_max":722,"ha":722,"o":"m 217 442 l 153 222 q 196 299 226 338 q 272 399 316 426 q 342 442 370 442 q 395 442 411 426 q 427 411 427 386 q 427 362 416 324 l 381 200 q 460 349 532 409 q 571 442 610 442 q 632 442 647 427 q 661 411 661 379 q 661 351 652 319 l 599 129 q 581 67 581 60 q 581 53 585 48 q 588 45 593 45 q 598 45 610 54 q 638 76 663 111 l 679 101 q 667 81 635 47 q 604 13 583 0 q 561 -12 542 -12 q 525 -12 513 0 q 502 12 502 29 q 502 52 522 123 l 566 280 q 582 334 583 340 q 584 349 584 358 q 584 370 579 377 q 573 384 565 384 q 545 384 522 363 q 455 301 396 189 q 357 115 324 0 l 250 0 l 333 295 q 347 343 347 359 q 347 373 342 379 q 336 385 329 385 q 312 385 294 374 q 265 354 219 292 q 173 229 147 172 q 135 146 89 0 l 17 0 l 107 316 l 119 357 q 123 367 123 371 q 123 382 113 390 q 103 399 88 399 q 82 399 53 393 l 48 411 z"},"#":{"x_min":0,"x_max":500,"ha":500,"o":"m 110 -14 l 155 208 l 72 208 l 72 249 l 163 249 l 197 416 l 72 416 l 72 455 l 206 455 l 250 677 l 291 677 l 247 455 l 411 455 l 458 677 l 499 677 l 453 455 l 536 455 l 536 416 l 445 416 l 411 249 l 536 249 l 536 208 l 403 208 l 357 -14 l 318 -14 l 362 208 l 197 208 l 150 -14 z m 204 249 l 370 249 l 405 416 l 238 416 z"},",":{"x_min":0,"x_max":250,"ha":250,"o":"m -10 -110 q 26 -93 49 -68 q 67 -48 67 -30 q 67 -21 64 -14 q 62 -10 50 1 q 39 13 37 18 q 34 26 34 37 q 34 58 48 73 q 62 88 82 88 q 102 88 117 72 q 133 56 133 31 q 133 -12 99 -57 q 64 -101 0 -125 z"},"n":{"x_min":0,"x_max":500,"ha":500,"o":"m 221 442 l 156 220 q 247 356 296 399 q 344 442 389 442 q 414 442 429 426 q 445 410 445 384 q 445 354 431 306 l 372 100 q 361 64 361 57 q 361 50 365 45 q 369 41 374 41 q 379 41 388 47 q 414 67 444 109 l 459 100 q 414 35 374 7 q 345 -12 323 -12 q 305 -12 294 -1 q 283 10 283 29 q 283 52 300 109 l 356 306 q 367 342 367 363 q 367 373 361 379 q 354 385 345 385 q 332 385 312 373 q 276 351 237 301 q 198 250 155 171 q 132 130 117 81 l 92 0 l 19 0 l 108 306 q 124 361 124 372 q 124 383 115 391 q 106 399 94 399 q 88 399 73 397 l 55 394 l 52 412 z"},"h":{"x_min":0,"x_max":500,"ha":500,"o":"m 293 694 l 156 220 q 245 354 295 398 q 345 442 390 442 q 414 442 429 426 q 445 410 445 383 q 445 351 431 305 l 372 100 q 360 63 360 59 q 360 52 365 48 q 369 43 374 43 q 380 43 389 50 q 417 71 444 109 l 459 100 q 442 74 413 43 q 383 12 362 0 q 341 -12 324 -12 q 306 -12 295 0 q 283 11 283 29 q 283 51 300 109 l 356 305 q 367 341 367 362 q 367 372 361 378 q 355 384 345 384 q 331 384 313 373 q 280 353 236 297 q 225 282 158 175 q 138 141 125 100 l 93 0 l 20 0 l 181 559 l 198 619 q 198 632 187 642 q 177 651 162 651 q 153 651 135 648 l 125 647 l 125 666 z"},"z":{"x_min":0,"x_max":389,"ha":389,"o":"m 84 430 l 394 430 l 394 418 l 56 66 l 199 66 q 250 66 264 70 q 277 74 289 87 q 300 100 314 133 l 333 133 l 290 0 l -28 0 l -28 14 l 310 366 l 169 366 q 125 366 116 363 q 102 360 89 348 q 75 335 61 307 l 42 307 z"},"B":{"x_min":0,"x_max":611,"ha":611,"o":"m 148 644 l 155 662 l 391 662 q 451 662 497 644 q 544 625 567 592 q 590 559 590 521 q 590 464 549 418 q 508 372 415 350 q 475 328 503 291 q 531 253 531 209 q 531 160 506 115 q 480 70 441 45 q 401 20 345 8 q 305 0 220 0 l -23 0 l -17 18 q 21 19 35 25 q 55 34 63 47 q 75 66 94 132 l 213 533 q 228 584 228 604 q 228 623 215 633 q 201 644 164 644 q 155 644 148 644 z m 247 369 q 279 368 293 368 q 395 368 444 412 q 494 457 494 523 q 494 573 463 601 q 433 629 367 629 q 349 629 322 624 z m 151 43 q 204 36 233 36 q 310 36 368 82 q 427 128 427 207 q 427 267 391 300 q 354 334 273 334 q 258 334 235 333 z"},"K":{"x_min":0,"x_max":667,"ha":667,"o":"m 319 376 l 483 123 q 527 56 556 37 q 585 18 632 18 l 626 0 l 344 0 l 349 18 q 382 21 396 34 q 410 47 410 63 q 410 78 405 91 q 401 101 377 139 l 243 350 l 178 130 q 162 78 162 60 q 162 41 175 31 q 189 21 243 18 l 235 0 l -27 0 l -21 18 q 18 19 31 25 q 50 34 60 47 q 72 67 91 130 l 208 530 q 221 576 221 604 q 221 624 208 634 q 196 644 160 644 l 150 644 l 156 662 l 404 662 l 399 644 q 369 645 354 637 q 333 627 323 611 q 313 595 294 530 l 243 360 l 478 538 q 525 573 540 593 q 548 606 548 616 q 548 625 539 633 q 530 642 512 644 l 517 662 l 729 662 l 724 644 q 689 638 666 629 q 642 619 617 603 q 610 598 522 530 z"},"R":{"x_min":0,"x_max":611,"ha":611,"o":"m 416 0 l 310 322 q 272 321 233 329 l 176 129 q 165 90 165 63 q 165 42 179 31 q 190 22 238 18 l 233 0 l -23 0 l -18 18 q 19 20 31 25 q 51 34 61 48 q 76 71 93 129 l 209 529 q 221 569 221 591 q 221 613 202 629 q 184 645 150 644 l 156 662 l 372 662 q 480 662 528 621 q 576 580 576 513 q 576 449 527 396 q 478 343 392 329 l 457 135 q 480 64 503 42 q 527 21 579 18 l 574 0 z m 242 357 q 273 353 297 353 q 381 353 430 399 q 479 446 479 515 q 479 569 448 598 q 418 627 357 627 q 341 627 320 623 z"},"T":{"x_min":0,"x_max":556,"ha":556,"o":"m 146 662 l 649 662 l 595 486 l 577 486 q 586 525 586 555 q 586 591 564 609 q 547 623 479 623 l 426 623 l 295 167 q 271 81 271 61 q 271 42 286 30 q 302 18 341 18 l 364 18 l 358 0 l 70 0 l 75 18 l 88 18 q 126 18 146 30 q 161 39 172 60 q 184 82 204 152 l 341 623 l 302 623 q 245 623 210 608 q 175 593 153 565 q 132 538 118 486 l 100 486 z"},"P":{"x_min":0,"x_max":611,"ha":611,"o":"m 156 662 l 417 662 q 520 662 570 618 q 621 574 621 510 q 621 460 589 413 q 557 365 493 336 q 430 306 356 306 q 310 306 239 323 l 187 142 q 168 78 168 57 q 168 42 181 31 q 194 21 244 18 l 239 0 l -24 0 l -19 18 q 33 18 53 36 q 74 54 97 134 l 207 511 q 226 579 226 602 q 226 619 212 630 q 198 642 151 644 z m 248 354 q 303 339 336 339 q 390 339 433 361 q 477 383 502 427 q 526 471 526 519 q 526 568 496 597 q 466 625 404 625 q 371 625 324 617 z"},"|":{"x_min":0,"x_max":275,"ha":275,"o":"m 156 694 l 156 -216 l 116 -216 l 116 694 z"},"t":{"x_min":0,"x_max":278,"ha":278,"o":"m 260 563 l 222 430 l 298 430 l 290 399 l 214 399 l 130 111 q 116 65 116 51 q 116 43 120 39 q 124 34 129 34 q 142 34 162 51 q 173 61 214 111 l 230 99 q 185 34 145 7 q 118 -12 90 -12 q 68 -12 55 2 q 41 15 41 36 q 41 62 57 117 l 138 399 l 64 399 l 69 418 q 123 433 159 462 q 194 491 238 563 z"},"M":{"x_min":0,"x_max":833,"ha":833,"o":"m 317 662 l 378 129 l 762 662 l 924 662 l 924 644 q 871 641 862 637 q 846 631 832 612 q 819 593 803 539 l 681 119 q 670 82 670 61 q 670 42 683 32 q 702 18 742 18 l 753 18 l 749 0 l 470 0 l 475 18 l 488 18 q 525 18 545 29 q 560 37 572 58 q 584 80 605 155 l 715 539 l 329 0 l 309 0 l 247 539 l 129 129 q 114 77 114 59 q 114 41 127 31 q 140 21 191 18 l 186 0 l -33 0 l -27 18 l -14 18 q 34 18 56 42 q 71 60 88 119 l 232 612 q 216 629 202 635 q 187 641 147 644 l 152 662 z"},"g":{"x_min":0,"x_max":500,"ha":500,"o":"m 521 412 l 507 361 l 425 361 q 435 334 435 312 q 435 247 380 197 q 325 146 229 141 q 177 125 151 104 q 141 96 141 88 q 141 78 150 70 q 159 62 194 54 l 289 32 q 368 13 393 -12 q 418 -38 418 -72 q 418 -112 388 -145 q 359 -178 302 -197 q 245 -216 176 -216 q 116 -216 66 -201 q 16 -187 -5 -163 q -27 -138 -27 -112 q -27 -91 -13 -69 q 1 -46 22 -31 q 35 -22 97 13 q 74 30 74 51 q 74 71 94 93 q 114 115 178 141 q 124 151 93 186 q 61 221 61 263 q 61 333 122 387 q 183 442 284 442 q 320 442 344 435 q 367 427 389 412 z m 352 335 q 352 374 330 396 q 308 419 273 419 q 218 419 182 364 q 146 308 146 248 q 146 210 169 187 q 192 163 225 163 q 250 163 275 177 q 299 191 315 216 q 332 241 342 279 q 352 318 352 335 z m 118 0 q 78 -18 58 -46 q 38 -75 38 -102 q 38 -134 67 -155 q 109 -186 190 -186 q 260 -186 309 -162 q 359 -138 359 -101 q 359 -82 341 -64 q 322 -47 270 -37 q 241 -31 118 0 z"},"j":{"x_min":0,"x_max":278,"ha":278,"o":"m 229 635 q 250 635 264 621 q 278 606 278 586 q 278 565 264 551 q 250 537 229 537 q 208 537 194 551 q 180 565 180 586 q 180 606 194 621 q 208 635 229 635 z m 237 442 l 110 5 q 77 -112 18 -164 q -41 -216 -109 -216 q -140 -216 -156 -202 q -172 -188 -172 -168 q -172 -153 -160 -141 q -148 -130 -132 -130 q -118 -130 -107 -139 q -99 -146 -99 -156 q -99 -168 -111 -178 q -118 -183 -118 -187 l -117 -189 q -115 -191 -112 -192 q -109 -193 -104 -193 q -64 -193 -36 -168 q -8 -143 14 -67 l 124 308 q 140 363 140 369 q 140 380 129 390 q 119 399 103 399 q 96 399 88 397 q 82 396 69 395 l 69 412 z"},"i":{"x_min":0,"x_max":278,"ha":278,"o":"m 224 636 q 244 636 258 622 q 272 607 272 587 q 272 567 258 552 q 244 538 224 538 q 204 538 189 552 q 175 567 175 587 q 175 607 189 622 q 203 636 224 636 z m 230 442 l 133 100 q 124 65 124 58 q 124 50 128 45 q 133 41 139 41 q 146 41 157 48 q 185 70 213 111 l 230 100 q 197 49 152 14 q 119 -12 88 -12 q 68 -12 56 0 q 43 12 43 30 q 43 48 55 90 l 119 309 q 134 363 134 376 q 134 387 127 394 q 119 401 106 401 q 95 401 62 396 l 62 415 z"},"y":{"x_min":0,"x_max":444,"ha":444,"o":"m 160 442 q 176 414 183 389 q 189 364 195 292 l 217 52 q 246 87 302 163 q 329 200 368 264 q 392 303 397 319 q 400 327 400 335 q 400 340 397 344 q 394 347 379 352 q 365 356 355 369 q 346 381 346 397 q 346 417 357 430 q 369 442 387 442 q 408 442 423 424 q 438 406 438 375 q 438 336 412 287 q 386 237 311 135 q 235 32 128 -89 q 55 -172 19 -194 q -17 -216 -42 -216 q -57 -216 -69 -204 q -80 -193 -80 -178 q -80 -159 -64 -143 q -48 -127 -30 -127 q -20 -127 -14 -132 q -10 -134 -5 -146 q 0 -157 3 -161 q 6 -164 9 -164 q 12 -164 20 -159 q 46 -142 82 -106 q 129 -58 151 -28 l 124 282 q 117 358 104 375 q 90 392 58 392 q 47 392 21 389 l 17 407 z"},"@":{"x_min":0,"x_max":920,"ha":920,"o":"m 688 468 l 630 273 q 599 164 592 134 q 585 105 585 87 q 585 72 595 61 q 606 50 622 50 q 657 50 707 86 q 757 122 793 202 q 829 282 829 369 q 829 452 788 523 q 748 594 675 632 q 601 669 512 669 q 399 669 303 610 q 206 550 150 438 q 93 325 93 204 q 93 92 143 0 q 192 -92 282 -139 q 372 -186 476 -186 q 604 -186 708 -117 q 812 -48 868 84 l 896 84 q 853 -50 737 -133 q 621 -216 473 -216 q 357 -216 257 -161 q 158 -106 103 -5 q 47 96 47 217 q 47 346 108 457 q 168 569 278 632 q 387 694 509 694 q 610 694 692 653 q 773 611 815 531 q 858 450 858 360 q 858 271 818 183 q 778 95 717 55 q 655 15 588 15 q 551 15 532 33 q 514 50 514 82 q 514 109 522 154 q 450 66 407 41 q 363 15 330 15 q 295 15 269 46 q 242 77 242 128 q 242 199 288 287 q 334 375 410 430 q 466 471 511 471 q 543 471 565 454 q 587 437 595 403 l 611 457 z m 516 448 q 479 448 442 409 q 387 353 348 256 q 319 186 319 143 q 319 112 336 93 q 354 74 375 74 q 403 74 435 95 q 466 117 500 161 q 534 206 550 251 q 577 329 577 377 q 577 410 559 429 q 542 448 516 448 z"},".":{"x_min":0,"x_max":250,"ha":250,"o":"m 83 87 q 104 87 118 73 q 133 59 133 38 q 133 18 118 3 q 104 -11 83 -11 q 62 -11 48 3 q 34 18 34 38 q 34 59 48 73 q 62 87 83 87 z"},"p":{"x_min":0,"x_max":500,"ha":500,"o":"m 221 442 l 188 330 q 241 392 282 417 q 324 442 368 442 q 411 442 442 407 q 473 373 473 318 q 473 210 385 99 q 298 -12 182 -12 q 157 -12 138 -6 q 120 -1 96 13 l 61 -113 q 50 -150 50 -162 q 50 -172 55 -180 q 61 -188 74 -192 q 86 -196 124 -196 l 120 -214 l -110 -214 l -105 -196 q -60 -194 -44 -180 q -28 -167 -11 -104 l 113 323 q 124 364 124 374 q 124 387 116 394 q 109 401 93 401 q 79 401 54 398 l 54 417 z m 107 51 q 138 15 189 15 q 214 15 241 29 q 267 43 292 71 q 317 99 337 135 q 357 172 373 221 q 389 271 389 319 q 389 358 371 379 q 354 399 330 399 q 277 399 225 339 q 174 278 150 197 z"},"X":{"x_min":0,"x_max":611,"ha":611,"o":"m 517 662 l 741 662 l 735 644 q 688 637 653 615 q 617 594 556 529 l 384 353 l 433 176 q 439 150 458 97 q 470 63 481 49 q 493 35 511 27 q 529 20 565 18 l 560 0 l 300 0 l 305 18 q 345 20 363 33 q 376 43 376 59 q 376 72 363 119 l 317 285 l 162 128 q 116 82 107 67 q 102 59 102 50 q 102 36 117 26 q 124 22 158 18 l 153 0 l -67 0 l -62 18 q -20 22 6 37 q 45 60 113 128 l 305 322 l 252 513 q 229 601 211 621 q 193 641 148 644 l 153 662 l 390 662 l 384 644 q 352 644 340 640 q 329 636 323 627 q 316 619 316 608 q 316 596 328 553 l 373 390 l 477 494 q 539 555 562 593 q 570 606 570 616 q 570 627 561 634 q 547 643 511 644 z"},"*":{"x_min":0,"x_max":500,"ha":500,"o":"m 312 510 q 310 543 298 577 q 282 625 282 643 q 282 668 294 681 q 306 694 323 694 q 338 694 350 681 q 361 668 361 644 q 361 622 348 582 q 335 543 332 510 q 359 527 380 551 q 414 590 430 599 q 446 608 462 608 q 479 608 490 597 q 500 586 500 571 q 500 553 484 539 q 468 525 404 511 q 366 502 341 492 q 367 479 403 472 q 462 461 481 445 q 499 429 499 410 q 499 395 488 384 q 477 374 462 374 q 448 374 430 384 q 412 394 382 430 q 362 454 332 475 q 333 447 343 414 q 361 356 361 335 q 361 316 349 302 q 337 289 324 289 q 306 289 292 303 q 281 313 281 336 q 281 359 292 392 q 304 425 307 438 q 310 450 312 475 q 283 456 262 432 q 226 392 208 381 q 195 374 182 374 q 165 374 153 385 q 142 396 142 410 q 142 422 152 435 q 162 449 182 458 q 195 463 242 473 q 272 479 301 492 q 274 505 238 512 q 178 525 164 535 q 142 551 142 574 q 142 587 153 598 q 164 609 178 609 q 194 609 212 599 q 230 589 257 558 q 284 527 312 510 z"},"Y":{"x_min":0,"x_max":556,"ha":556,"o":"m 350 352 l 476 528 q 524 597 524 616 q 524 627 514 634 q 503 641 454 644 l 459 662 l 667 662 l 663 644 q 633 640 622 636 q 604 628 587 613 q 564 592 521 532 l 358 309 l 310 145 q 292 83 292 60 q 292 45 297 37 q 303 29 317 24 q 335 19 374 18 l 369 0 l 90 0 l 96 18 q 137 19 151 25 q 173 34 184 48 q 200 71 218 129 l 276 322 l 205 551 q 186 611 170 626 q 154 641 115 644 l 120 662 l 364 662 l 358 644 q 312 641 306 638 q 295 635 289 625 q 282 614 282 601 q 282 581 296 532 z"},"c":{"x_min":0,"x_max":444,"ha":444,"o":"m 386 106 q 335 45 284 17 q 232 -12 174 -12 q 105 -12 66 27 q 27 66 27 132 q 27 207 69 279 q 111 352 181 397 q 252 442 320 442 q 373 442 399 420 q 426 397 426 365 q 426 335 407 313 q 394 297 374 297 q 358 297 348 307 q 338 316 338 331 q 338 340 342 348 q 346 356 357 367 q 369 378 371 383 q 374 388 374 393 q 374 403 364 410 q 350 420 324 420 q 276 420 229 386 q 183 353 149 291 q 109 215 109 140 q 109 90 138 61 q 166 32 215 32 q 252 32 289 51 q 326 70 372 119 z"},"!":{"x_min":0,"x_max":333,"ha":333,"o":"m 158 161 l 139 161 q 163 250 173 296 q 183 343 195 418 q 219 573 225 599 q 234 643 256 666 q 267 677 285 677 q 298 677 308 667 q 317 656 317 638 q 317 618 308 587 q 288 520 229 366 q 201 293 198 285 q 188 257 158 161 z m 125 84 q 146 84 161 69 q 175 55 175 34 q 175 13 161 -1 q 146 -16 125 -16 q 104 -16 90 -1 q 75 13 75 34 q 75 55 90 69 q 104 84 125 84 z"},"/":{"x_min":0,"x_max":278,"ha":278,"o":"m 381 694 l 9 -15 l -34 -15 l 341 694 z"},"[":{"x_min":0,"x_max":389,"ha":389,"o":"m 6 -199 l 263 677 l 471 677 l 460 644 l 324 644 l 88 -164 l 224 -164 l 214 -199 z"},"6":{"x_min":0,"x_max":500,"ha":500,"o":"m 525 676 l 525 657 q 442 637 363 574 q 285 512 226 414 q 278 436 312 436 q 374 436 417 391 q 461 346 461 270 q 461 153 386 71 q 311 -12 224 -12 q 145 -12 104 47 q 63 105 63 182 q 63 282 109 379 q 156 477 235 546 q 314 616 400 649 q 451 669 525 676 z m 202 373 q 132 224 132 123 q 132 70 159 40 q 185 10 219 10 q 275 10 324 92 q 373 174 373 282 q 373 339 344 371 q 316 402 276 402 q 259 402 243 396 q 228 391 202 373 z"},"r":{"x_min":0,"x_max":389,"ha":389,"o":"m 52 415 l 221 442 l 150 205 q 236 351 306 409 q 345 442 370 442 q 386 442 396 432 q 405 423 405 405 q 405 373 388 343 q 376 321 354 321 q 343 321 335 329 q 327 336 325 351 q 324 360 321 363 q 317 367 312 367 q 303 367 296 363 q 283 356 257 325 q 217 277 169 201 q 149 169 134 128 q 114 73 111 62 l 95 0 l 21 0 l 111 303 q 126 356 126 378 q 126 387 119 393 q 109 401 93 401 q 83 401 56 396 z"},"2":{"x_min":0,"x_max":500,"ha":500,"o":"m 345 0 l 16 0 l 16 18 q 268 239 349 364 q 386 422 386 486 q 386 537 355 569 q 324 601 274 601 q 205 601 161 535 l 144 543 q 168 606 216 641 q 264 676 320 676 q 383 676 426 633 q 469 589 469 528 q 469 485 454 448 q 430 391 367 320 q 271 212 112 71 l 278 71 q 318 71 344 87 q 370 104 381 132 l 400 132 z"},"{":{"x_min":0,"x_max":400,"ha":400,"o":"m 219 -199 l 213 -216 q 149 -207 114 -167 q 78 -127 78 -73 q 78 -23 115 48 q 153 120 153 147 q 153 179 132 201 q 111 224 69 229 l 75 250 q 125 256 161 282 q 197 309 212 342 q 222 365 226 433 q 229 500 256 551 q 283 602 344 644 q 404 685 475 694 l 470 677 q 415 665 380 638 q 346 612 331 575 q 320 550 316 487 q 312 423 295 384 q 278 344 231 304 q 185 264 112 241 q 162 220 188 185 q 213 149 213 107 q 213 65 175 -7 q 137 -78 137 -111 q 137 -143 155 -165 q 174 -187 219 -199 z"},"9":{"x_min":0,"x_max":500,"ha":500,"o":"m 29 -12 l 29 4 q 79 15 116 35 q 182 71 235 125 q 287 178 328 248 q 298 233 282 229 q 265 225 245 225 q 171 225 132 275 q 93 325 93 392 q 93 509 169 592 q 245 676 330 676 q 408 676 449 617 q 491 559 491 481 q 491 382 445 285 q 399 188 320 119 q 242 49 155 15 q 104 -5 29 -12 z m 353 289 q 421 428 421 538 q 421 591 395 621 q 369 650 334 650 q 277 650 229 569 q 182 489 182 378 q 182 319 209 289 q 236 259 277 259 q 295 259 311 265 q 327 271 353 289 z"}," ":{"x_min":0,"x_max":250,"ha":250,"o":""},"I":{"x_min":0,"x_max":333,"ha":333,"o":"m 247 18 l 241 0 l -31 0 l -24 18 q 17 19 30 25 q 51 33 62 48 q 78 71 95 130 l 210 529 q 225 579 225 604 q 225 617 218 626 q 212 635 199 639 q 186 644 148 644 l 154 662 l 410 662 l 405 644 q 374 645 358 637 q 336 627 325 609 q 313 591 295 529 l 181 130 q 165 75 165 60 q 165 47 171 39 q 177 30 191 26 q 204 21 247 18 z"},"H":{"x_min":0,"x_max":722,"ha":722,"o":"m 247 367 l 552 367 l 601 530 q 614 578 614 604 q 614 617 608 626 q 602 635 589 640 q 577 644 540 644 l 544 662 l 811 662 l 805 644 q 771 645 755 637 q 731 627 720 611 q 704 588 688 530 l 571 130 q 556 81 556 59 q 556 41 569 31 q 582 21 631 18 l 625 0 l 368 0 l 375 18 q 413 19 425 25 q 445 34 454 47 q 466 66 485 130 l 544 333 l 237 333 l 177 130 q 163 82 163 59 q 163 41 176 31 q 188 21 237 18 l 233 0 l -26 0 l -20 18 q 19 19 31 25 q 51 34 60 47 q 73 67 91 130 l 208 530 q 223 579 223 604 q 223 617 217 626 q 210 635 198 640 q 185 644 147 644 l 153 662 l 414 662 l 409 644 q 376 645 360 637 q 337 627 327 611 q 312 590 294 530 z"},"4":{"x_min":0,"x_max":500,"ha":500,"o":"m 487 662 l 360 227 l 439 227 l 422 166 l 342 166 l 291 -12 l 219 -12 l 271 166 l 31 166 l 52 234 l 450 662 z m 378 536 l 94 227 l 290 227 z"},"~":{"x_min":0,"x_max":541,"ha":541,"o":"m 509 330 l 531 330 q 529 266 495 230 q 460 194 411 194 q 389 194 363 202 q 337 209 229 253 q 154 285 122 285 q 88 285 64 264 q 41 243 31 195 l 10 195 q 13 261 46 296 q 79 331 124 331 q 146 331 168 324 q 219 310 302 274 q 384 239 418 239 q 455 239 479 262 q 504 286 509 330 z"},"D":{"x_min":0,"x_max":722,"ha":722,"o":"m 146 644 l 152 662 l 364 662 q 498 662 563 631 q 627 601 666 534 q 705 468 705 393 q 705 328 682 266 q 660 205 632 168 q 604 131 546 87 q 488 42 420 21 q 352 0 250 0 l -30 0 l -23 18 q 15 19 28 25 q 48 33 57 47 q 71 68 89 130 l 206 530 q 220 578 220 604 q 220 624 207 634 q 194 644 157 644 z m 320 625 l 176 130 q 160 74 160 61 q 160 53 165 46 q 170 39 179 36 q 192 32 220 32 q 297 32 363 48 q 428 63 470 95 q 530 140 565 220 q 601 299 601 401 q 601 516 546 572 q 492 627 387 627 q 361 627 320 625 z"},"^":{"x_min":0,"x_max":422,"ha":422,"o":"m 252 677 l 460 328 l 415 328 l 244 614 l 73 328 l 27 328 l 238 677 z"},"0":{"x_min":0,"x_max":500,"ha":500,"o":"m 346 676 q 408 676 451 624 q 494 571 494 458 q 494 362 462 261 q 430 161 373 87 q 327 29 276 3 q 247 -12 208 -12 q 145 -12 102 41 q 60 93 60 206 q 60 318 103 431 q 153 562 231 631 q 282 676 346 676 z m 346 650 q 318 650 289 628 q 260 606 229 536 q 198 465 169 354 q 133 209 133 107 q 133 57 155 31 q 177 6 208 6 q 238 6 259 26 q 315 79 355 206 q 420 415 420 545 q 420 599 398 625 q 376 650 346 650 z"},"F":{"x_min":0,"x_max":611,"ha":611,"o":"m 325 627 l 247 365 l 334 365 q 393 365 422 383 q 451 401 481 460 l 500 460 l 431 219 l 412 219 q 419 248 419 267 q 419 297 399 313 q 379 330 325 330 l 237 330 l 180 130 q 164 77 164 59 q 164 41 177 31 q 191 21 243 18 l 237 0 l -24 0 l -18 18 q 20 19 33 25 q 52 33 62 47 q 75 67 93 130 l 209 529 q 224 577 224 604 q 224 617 217 626 q 211 635 198 640 q 186 644 149 644 l 155 662 l 668 662 l 620 495 l 601 495 q 606 525 606 544 q 606 577 589 595 q 571 614 543 622 q 523 627 456 627 z"},"`":{"x_min":0,"x_max":333,"ha":333,"o":"m 284 685 l 337 517 l 321 517 l 176 685 z"},"k":{"x_min":0,"x_max":444,"ha":444,"o":"m 286 694 l 147 214 l 203 262 q 294 339 322 376 q 331 388 331 395 q 331 399 328 403 q 325 407 316 409 q 308 412 286 412 l 269 412 l 274 430 l 488 430 l 483 412 q 446 410 420 400 q 393 391 368 372 q 319 335 303 321 l 261 284 q 272 249 288 186 q 314 82 323 62 q 333 42 342 42 q 351 42 362 51 q 387 69 416 110 l 433 98 q 380 31 352 10 q 323 -12 300 -12 q 279 -12 268 4 q 249 33 203 231 l 136 173 l 86 0 l 10 0 l 172 557 l 186 604 q 188 617 188 626 q 188 638 179 646 q 170 653 153 653 q 142 653 117 648 l 117 666 z"},"u":{"x_min":0,"x_max":500,"ha":500,"o":"m 471 430 l 386 139 q 367 74 367 57 q 367 48 370 44 q 373 40 378 40 q 387 40 397 48 q 407 55 447 108 l 462 97 q 423 36 383 7 q 356 -12 331 -12 q 312 -12 301 -1 q 291 10 291 27 q 291 43 297 71 q 305 107 341 228 q 258 92 202 40 q 146 -12 99 -12 q 76 -12 61 4 q 45 20 45 43 q 45 80 66 156 l 109 307 q 125 361 125 374 q 125 380 120 384 q 116 388 111 388 q 101 388 91 381 q 81 374 44 327 l 29 337 q 66 394 107 421 q 138 442 165 442 q 183 442 194 430 q 206 419 206 401 q 206 375 186 307 l 140 149 q 121 84 121 67 q 121 58 127 52 q 133 47 144 47 q 160 47 186 63 q 211 79 255 135 q 298 190 326 239 q 354 287 386 393 l 396 430 z"},"]":{"x_min":0,"x_max":389,"ha":389,"o":"m 365 677 l 108 -199 l -100 -199 l -90 -166 l 47 -166 l 283 642 l 147 642 l 157 677 z"},"U":{"x_min":0,"x_max":722,"ha":722,"o":"m 131 662 l 411 662 l 405 644 q 362 643 344 636 q 326 629 313 611 q 300 593 286 544 l 218 310 q 200 247 196 228 q 190 196 190 169 q 190 110 234 70 q 278 29 352 29 q 400 29 438 47 q 477 65 504 98 q 531 131 553 188 q 576 244 593 302 l 651 504 q 673 580 673 603 q 673 619 658 630 q 644 642 598 644 l 604 662 l 814 662 l 809 644 q 771 644 755 637 q 739 630 727 612 q 714 593 699 541 l 627 295 q 593 175 562 118 q 531 62 473 23 q 415 -15 328 -15 q 229 -15 167 41 q 106 98 106 170 q 106 199 112 232 q 116 253 131 306 l 196 531 q 210 580 210 603 q 210 621 196 631 q 182 641 126 644 z"},"o":{"x_min":0,"x_max":500,"ha":500,"o":"m 462 289 q 462 216 424 144 q 385 72 315 30 q 246 -12 181 -12 q 114 -12 72 31 q 29 74 29 142 q 29 213 71 286 q 112 358 181 400 q 250 442 314 442 q 379 442 421 399 q 462 357 462 289 z m 381 323 q 381 368 359 392 q 337 417 302 417 q 230 417 170 314 q 109 211 109 109 q 109 63 133 38 q 156 13 192 13 q 261 13 321 115 q 381 217 381 323 z"},"N":{"x_min":0,"x_max":667,"ha":667,"o":"m 287 662 l 491 143 l 602 531 q 616 579 616 605 q 616 623 603 633 q 590 644 556 644 q 550 644 543 644 l 549 662 l 762 662 l 756 644 q 723 645 707 637 q 684 627 672 611 q 657 588 641 531 l 485 -15 l 467 -15 l 247 543 l 129 131 q 116 84 116 59 q 116 41 128 31 q 140 21 185 18 l 180 0 l -28 0 l -21 18 q 18 19 31 25 q 51 34 61 48 q 75 69 93 131 l 224 591 q 205 621 183 632 q 162 643 116 644 l 121 662 z"},"+":{"x_min":0,"x_max":675,"ha":675,"o":"m 335 69 l 335 312 l 93 312 l 93 353 l 335 353 l 335 595 l 375 595 l 375 353 l 619 353 l 619 312 l 375 312 l 375 69 z"},"G":{"x_min":0,"x_max":722,"ha":722,"o":"m 720 677 l 670 469 l 652 469 q 656 505 656 523 q 656 571 614 608 q 572 645 498 645 q 346 645 250 502 q 173 389 173 250 q 173 157 220 89 q 268 22 366 22 q 391 22 412 26 q 434 31 478 46 l 526 216 q 537 251 537 272 q 537 290 524 299 q 503 313 458 313 l 444 313 l 449 333 l 725 333 l 720 313 q 682 313 665 305 q 648 296 636 276 q 627 263 609 200 l 560 32 q 493 3 452 -6 q 411 -16 366 -16 q 261 -16 196 24 q 131 63 100 128 q 69 192 69 256 q 69 342 105 420 q 142 497 196 551 q 250 604 313 635 q 400 677 497 677 q 567 677 625 654 q 647 645 658 645 q 670 645 679 650 q 688 656 701 677 z"},"q":{"x_min":0,"x_max":500,"ha":500,"o":"m 474 442 l 314 -110 q 304 -148 304 -159 q 304 -170 309 -178 q 315 -186 325 -190 q 340 -196 364 -196 l 359 -214 l 125 -214 l 130 -196 q 178 -192 190 -188 q 208 -180 220 -164 q 232 -147 247 -94 l 314 147 q 250 53 194 15 q 155 -12 121 -12 q 72 -12 47 28 q 22 67 22 114 q 22 188 67 269 q 113 350 187 401 q 245 442 292 442 q 326 442 349 425 q 371 408 382 371 l 397 426 z m 363 347 q 363 378 344 398 q 325 418 297 418 q 237 418 171 315 q 105 213 105 122 q 105 85 122 66 q 138 47 162 47 q 191 47 229 81 q 286 131 324 210 q 363 289 363 347 z"},"d":{"x_min":0,"x_max":500,"ha":500,"o":"m 541 694 l 373 118 q 359 71 359 57 q 359 52 364 47 q 368 43 372 43 q 378 43 387 49 q 404 61 443 108 l 459 98 q 424 49 388 19 q 353 -12 321 -12 q 305 -12 294 0 q 283 12 283 33 q 283 61 298 108 l 317 168 q 246 59 188 17 q 148 -12 111 -12 q 74 -12 47 21 q 19 54 19 111 q 19 184 65 266 q 112 349 188 400 q 248 442 298 442 q 325 442 344 431 q 363 420 381 396 l 429 565 q 435 583 438 594 q 444 614 444 626 q 444 637 437 644 q 426 652 410 652 q 399 652 373 648 l 373 667 z m 360 348 q 360 379 342 398 q 324 417 296 417 q 234 417 168 315 q 101 214 101 121 q 101 84 117 65 q 133 46 156 46 q 207 46 283 156 q 360 266 360 348 z"},"1":{"x_min":0,"x_max":500,"ha":500,"o":"m 417 676 l 260 128 q 247 80 247 59 q 247 41 259 31 q 271 21 317 18 l 312 0 l 61 0 l 68 18 q 108 19 121 24 q 141 33 151 48 q 167 70 184 128 l 297 521 q 308 557 309 562 q 310 572 310 582 q 310 599 301 608 q 292 618 275 618 q 263 618 236 612 l 229 630 l 394 676 z"},"5":{"x_min":0,"x_max":500,"ha":500,"o":"m 258 662 l 479 662 l 457 582 l 258 582 l 221 500 q 300 487 344 451 q 412 394 412 291 q 412 223 387 168 q 362 113 325 76 q 289 39 248 18 q 191 -12 133 -12 q 84 -12 55 10 q 36 24 36 47 q 36 64 48 77 q 61 89 80 89 q 105 89 137 63 q 157 47 169 42 q 180 38 194 38 q 249 38 295 93 q 342 147 342 235 q 342 296 317 339 q 292 382 254 400 q 216 417 153 424 z"}}}
